<?xml version="1.0" standalone="no"?>
<!DOCTYPE svg PUBLIC "-//W3C//DTD SVG 20010904//EN"
 "http://www.w3.org/TR/2001/REC-SVG-20010904/DTD/svg10.dtd">
<svg version="1.0" xmlns="http://www.w3.org/2000/svg"
 width="94.000000pt" height="94.000000pt" viewBox="0 0 94.000000 94.000000"
 preserveAspectRatio="xMidYMid meet">
<metadata>
Created by potrace 1.11, written by Peter Selinger 2001-2013
</metadata>
<g transform="translate(0.000000,94.000000) scale(0.100000,-0.100000)"
fill="#000000" stroke="none">
<path d="M39 891 c-1 -3 -2 -89 -3 -191 -1 -165 0 -186 16 -202 15 -15 23 -16
38 -8 22 12 22 10 23 202 l0 127 66 0 c237 -1 250 0 260 20 7 13 6 24 -4 37
-12 17 -29 19 -204 20 -105 0 -192 -2 -192 -5z"/>
<path d="M506 884 c-18 -17 -20 -32 -7 -53 7 -11 43 -14 165 -15 133 0 156 -3
157 -16 0 -8 0 -74 0 -147 0 -110 3 -136 17 -153 20 -25 50 -18 61 14 4 11 7
102 7 201 l-1 180 -192 3 c-164 2 -193 0 -207 -14z"/>
<path d="M455 758 c-4 -13 -16 -36 -27 -51 -11 -15 -17 -34 -14 -42 3 -9 0
-12 -8 -9 -12 4 -42 -42 -38 -58 1 -5 -4 -8 -10 -9 -7 -1 -33 -23 -57 -50 -37
-42 -41 -49 -23 -49 11 0 23 6 25 13 4 9 6 9 6 0 1 -7 7 -10 15 -7 8 3 17 0
22 -7 4 -8 3 -10 -4 -5 -7 4 -12 2 -12 -3 0 -19 -4 -25 -32 -55 -26 -27 -32
-40 -29 -59 1 -5 -2 -6 -7 -3 -5 3 -20 -6 -32 -19 l-24 -25 35 6 c19 4 40 11
47 17 19 15 4 -20 -31 -72 -24 -35 -27 -45 -16 -53 11 -8 10 -9 -3 -5 -10 4
-22 -3 -32 -17 l-15 -24 57 2 c31 0 63 5 71 10 9 6 12 5 8 -1 -3 -5 11 -9 34
-10 21 0 36 3 33 8 -3 5 -2 9 3 9 4 0 8 15 8 34 0 19 -3 32 -6 31 -3 -2 -5 11
-5 30 1 18 3 33 6 32 3 -1 20 7 38 16 32 17 34 17 65 -2 31 -19 32 -21 31 -89
l-1 -69 108 -1 c90 0 107 2 102 14 -3 8 -8 14 -12 14 -7 0 -81 122 -81 133 0
4 6 5 13 3 6 -3 25 -7 41 -11 28 -6 28 -6 -16 45 -25 28 -55 69 -67 90 l-22
40 43 -6 43 -6 -46 49 c-47 48 -149 193 -149 211 0 5 -6 15 -14 21 -12 10 -16
8 -21 -11z"/>
<path d="M837 420 c-8 -12 -12 -63 -12 -164 1 -138 -2 -151 -27 -147 -5 0 -8
-4 -8 -10 0 -6 -5 -7 -12 -2 -19 12 -158 10 -158 -2 0 -6 -3 -6 -8 1 -15 24
-82 -1 -82 -31 0 -32 29 -37 196 -36 92 0 168 2 171 4 4 4 4 33 2 97 0 8 2 25
5 38 2 12 1 22 -4 22 -5 0 -5 12 -1 28 4 15 5 39 1 53 -4 15 -5 32 -1 38 10
15 2 104 -9 115 -17 17 -40 15 -53 -4z"/>
<path d="M87 416 c-6 -14 -11 -15 -28 -5 -16 8 -20 8 -14 0 4 -7 1 -18 -5 -26
-7 -8 -8 -15 -3 -15 5 0 9 -40 8 -90 -1 -70 2 -87 11 -79 10 8 12 5 11 -10 -1
-12 -7 -19 -13 -17 -8 3 -11 -2 -9 -15 2 -10 -2 -19 -8 -19 -8 0 -9 -3 -1 -8
5 -4 10 -27 9 -52 -1 -44 0 -45 32 -46 18 -1 34 3 34 7 1 5 3 14 4 19 1 6 3
13 4 18 1 4 5 0 11 -8 5 -8 5 -19 0 -25 -5 -6 8 -10 38 -11 37 -2 42 0 24 7
-13 5 -20 14 -16 20 4 8 9 7 15 -2 5 -8 9 -10 9 -5 0 5 7 3 16 -5 9 -7 35 -14
57 -16 23 -2 38 0 32 4 -16 12 -16 31 0 37 9 3 12 0 9 -8 -3 -7 2 -19 11 -26
14 -12 18 -11 26 1 4 8 6 23 2 34 -5 18 -4 18 11 6 13 -11 20 -11 28 -3 13 13
15 13 -67 16 -33 2 -54 1 -47 -1 19 -7 14 -19 -8 -20 -11 -1 -19 1 -17 5 1 4
0 7 -3 8 -3 0 -15 6 -26 12 -12 6 -24 8 -28 4 -4 -3 -25 -7 -47 -8 -31 -1 -39
2 -39 16 0 10 -7 23 -15 30 -9 7 -13 15 -10 18 3 3 -1 12 -8 20 -10 13 -9 14
2 7 10 -6 12 -4 6 5 -5 9 -4 11 4 6 6 -4 9 -11 7 -15 -3 -4 0 -13 5 -21 6 -10
8 -2 6 27 -2 23 -6 46 -10 49 -4 4 0 15 9 25 12 13 12 17 2 16 -7 -2 -15 -7
-17 -12 -5 -12 -35 -35 -40 -30 -4 5 41 69 52 74 5 2 -1 10 -14 19 l-22 15 24
13 c13 7 18 13 10 14 -11 0 -11 3 -1 14 7 10 8 21 2 32 -8 15 -9 15 -15 0z m8
-26 c-4 -6 -14 -9 -24 -6 -12 5 -11 2 3 -9 11 -8 17 -15 14 -15 -4 0 -13 -3
-21 -6 -10 -3 -14 2 -13 18 0 13 6 23 13 23 6 0 15 3 19 8 10 10 17 1 9 -13z
m-16 -91 c-13 -24 -23 -18 -25 16 -1 20 2 23 18 14 15 -8 16 -14 7 -30z m17
-82 c2 -13 -2 -15 -16 -7 -9 5 -21 6 -26 2 -5 -4 -2 1 5 11 16 21 33 18 37 -6z
m-1 -98 c0 -8 4 -19 7 -25 11 -17 2 -47 -15 -50 -9 -1 -17 2 -17 7 0 6 -4 8
-8 5 -4 -2 -8 6 -8 18 0 18 5 22 21 19 20 -4 20 -4 0 9 -11 7 -21 23 -21 36
-1 21 0 22 20 9 11 -8 21 -21 21 -28z m150 -31 c3 4 5 0 3 -8 -2 -9 4 -15 14
-15 10 0 18 -5 18 -10 0 -17 -24 -11 -43 10 -18 20 -18 20 -6 -5 l12 -25 -24
20 c-13 11 -26 21 -28 22 -1 1 0 6 4 12 4 7 12 8 24 1 10 -5 22 -6 26 -2z
m-70 -7 c3 -5 1 -12 -5 -16 -6 -4 -8 -10 -6 -14 3 -4 -1 -8 -8 -8 -8 0 -12 7
-11 16 2 9 4 19 4 24 1 10 19 9 26 -2z m167 -33 c-13 -13 -24 5 -16 27 7 16 8
16 17 0 6 -11 6 -20 -1 -27z"/>
<path d="M73 125 c0 -8 4 -12 9 -9 5 3 6 10 3 15 -9 13 -12 11 -12 -6z"/>
<path d="M90 79 c0 -5 -4 -7 -10 -4 -14 9 -12 -1 3 -13 10 -8 13 -6 14 9 1 10
0 19 -3 19 -2 0 -4 -5 -4 -11z"/>
<path d="M90 340 c0 -5 5 -10 10 -10 6 0 10 5 10 10 0 6 -4 10 -10 10 -5 0
-10 -4 -10 -10z"/>
<path d="M376 47 c-16 -12 -16 -14 -3 -14 9 0 18 6 21 14 7 16 4 16 -18 0z"/>
</g>
</svg>
